<svg width="117" height="116" viewBox="0 0 117 116" fill="none" xmlns="http://www.w3.org/2000/svg">
<path d="M78.278 49.6189C78.278 60.5442 69.4302 69.4099 58.5049 69.4099C47.5794 69.4099 38.7139 60.5442 38.7139 49.6189C38.7139 38.6935 47.5794 29.8457 58.5049 29.8457C69.4302 29.8457 78.278 38.6935 78.278 49.6189Z" fill="#B0B6D3"/>
<path d="M71.9734 85.8848V104.78C71.9734 107.395 69.86 109.509 67.2451 109.509H49.4958C46.881 109.509 44.7676 107.395 44.7676 104.78V85.8848H71.9734Z" fill="white"/>
<path d="M44.7676 93.9434H71.9735V101.466H44.7676V93.9434Z" fill="#B0B6D3"/>
<path d="M65.2979 109.506L64.3307 114.378H52.4203L51.4531 109.506H65.2979Z" fill="#B0B6D3"/>
<path d="M67.21 55.4382V85.886H49.7832V55.4382C49.9372 55.214 58.3125 43.0366 58.4877 42.7933C59.3865 44.0777 55.2628 38.1145 67.21 55.4382Z" fill="white"/>
<path d="M62.3698 48.4316C61.2645 49.1895 59.9382 49.6316 58.5013 49.6316C57.0645 49.6316 55.7224 49.1737 54.6172 48.4158C54.7426 48.2336 58.728 42.4424 58.4855 42.7947C58.611 42.9768 62.6258 48.8031 62.3698 48.4316Z" fill="#B0B6D3"/>
<path d="M112.841 37.1923C112.663 36.7323 112.142 36.5006 111.683 36.6798C111.222 36.8574 110.993 37.376 111.169 37.8377C113.662 44.2909 114.924 51.0939 114.924 58.0587C114.924 70.7831 110.758 82.8115 102.873 92.8432C102.569 93.2324 102.635 93.7956 103.026 94.1008C103.407 94.4041 103.975 94.3422 104.283 93.9504C112.416 83.6003 116.715 71.1889 116.715 58.0587C116.715 50.8726 115.412 43.8519 112.841 37.1923Z" fill="#001571"/>
<path d="M106.419 28.3239C106.683 28.7473 107.237 28.869 107.652 28.6099C108.071 28.3475 108.199 27.7957 107.937 27.3759C106.788 25.5341 105.523 23.7379 104.176 22.0369C103.868 21.6477 103.305 21.5848 102.919 21.8908C102.53 22.1978 102.466 22.761 102.773 23.1493C104.078 24.7969 105.304 26.5381 106.419 28.3239Z" fill="#001571"/>
<path d="M39.0613 111.019C27.9023 106.906 18.1119 99.1572 11.4943 89.1998C11.2188 88.7853 10.6609 88.6751 10.2524 88.9497C9.84054 89.2234 9.7286 89.7796 10.0023 90.1915C16.8289 100.463 26.9289 108.456 38.4422 112.699C38.9041 112.869 39.4199 112.635 39.5922 112.169C39.7627 111.704 39.5257 111.19 39.0613 111.019Z" fill="#001571"/>
<path d="M37.0659 5.88906C40.829 4.33764 44.7723 3.19549 48.7873 2.49587C49.2744 2.41105 49.6006 1.94667 49.5158 1.45956C49.4301 0.972445 48.9744 0.650612 48.4795 0.731066C44.3368 1.45343 40.2667 2.63144 36.3838 4.2327C35.9264 4.4216 35.7086 4.94457 35.8967 5.40195C36.0856 5.85976 36.6087 6.07628 37.0659 5.88906Z" fill="#001571"/>
<path d="M30.2379 9.26202C30.6655 9.01366 30.8107 8.46533 30.5614 8.03768C30.3131 7.61003 29.763 7.46399 29.3371 7.71411C-1.8836 25.86 0.358945 58.4408 0.309566 58.6207C0.313936 59.1122 0.714468 59.5075 1.20509 59.5075H1.21383C1.70794 59.5031 2.10498 59.0982 2.10061 58.6032C2.15791 58.3945 1.67171 25.8642 30.2379 9.26202Z" fill="#001571"/>
<path d="M109.551 58.0584C109.551 29.9125 86.6527 7.01367 58.5067 7.01367C30.3607 7.01367 7.46191 29.9125 7.46191 58.0584C7.46191 81.2989 23.0905 100.924 44.3777 107.072C45.2576 109.031 47.2182 110.405 49.5016 110.405H50.7197L51.5436 114.554C51.6267 114.974 51.994 115.276 52.4217 115.276H64.3311C64.7578 115.276 65.1269 114.974 65.2091 114.554L66.033 110.405H67.252C69.4928 110.405 71.4159 109.078 72.3189 107.177C93.7708 101.135 109.551 81.4159 109.551 58.0584ZM71.0842 100.571H45.6694V94.8404H71.0842V100.571ZM68.1213 84.9897C68.1211 82.8063 68.1224 94.2239 68.1178 55.427C68.1178 55.1151 59.0881 42.0833 59.3244 42.4262C59.3148 42.4043 59.3051 42.3833 59.2938 42.3632C58.8938 41.6016 57.8289 41.8179 57.626 42.5617C57.3554 42.91 48.8956 54.9843 48.8956 55.427C48.8913 91.6484 48.8922 83.6489 48.8921 84.9897H47.0109C45.8225 78.0275 42.7342 71.352 37.9237 65.7412C22.8494 48.163 35.4722 20.9931 58.4988 20.9931C81.6409 20.9931 93.9359 48.1257 79.2402 65.5637C74.3677 71.3419 71.2349 78.0746 70.0209 84.9897L68.1213 84.9897ZM61.0901 48.1456C59.4845 48.9222 57.5327 48.9284 55.9062 48.1308C56.5806 47.1507 57.7305 45.4797 58.491 44.3737L61.0901 48.1456ZM54.8908 49.6052C56.0112 50.2014 57.2415 50.5278 58.5067 50.5278C59.7738 50.5278 60.997 50.2035 62.1068 49.6167L65.0761 53.9018C65.0332 53.8932 64.9937 53.8757 64.9503 53.8686C63.5236 53.6395 62.2282 54.2119 61.4087 55.1938C60.7108 54.3597 59.6762 53.817 58.5067 53.817C57.3291 53.817 56.288 54.3666 55.5899 55.2101C55.0233 54.5107 54.2303 54.0161 53.326 53.8686C52.8352 53.7897 52.366 53.8247 51.9188 53.918L54.8908 49.6052ZM60.5164 84.9897H56.4953V57.7751V57.6194C56.4953 56.5105 57.3978 55.608 58.5067 55.608C59.6147 55.608 60.5164 56.5105 60.5164 57.6194V84.9897ZM50.6866 57.5883C50.7057 56.3809 51.8012 55.4297 53.0374 55.6369C53.988 55.7917 54.7042 56.7108 54.7042 57.7751V84.9897H50.6831C50.6835 82.1875 50.6818 95.1393 50.6866 57.5883ZM62.3074 84.9897V57.6194C62.3074 56.3977 63.3848 55.4296 64.6634 55.6369C65.6066 55.7906 66.317 56.6991 66.3268 57.7541C66.3316 95.0779 66.3299 82.2049 66.3303 84.9897H62.3074ZM45.6694 86.7808C48.3383 86.7808 71.3385 86.7806 71.0842 86.7808V93.0494H45.6694V86.7808ZM63.5965 113.485H53.1572L52.545 110.405H64.2069L63.5965 113.485ZM67.252 108.613C66.875 108.613 49.0752 108.613 49.5016 108.613C47.3887 108.613 45.6694 106.894 45.6694 104.78V102.362H71.0842V104.78C71.0842 106.894 69.3649 108.613 67.252 108.613ZM72.8389 105.14C72.8467 105.019 72.8753 104.903 72.8753 104.78C72.8753 98.5375 72.8753 92.8516 72.8753 85.8853C72.8753 85.3903 72.4747 84.9897 71.9797 84.9897H71.8353C73.0348 78.4936 76.0138 72.1679 80.6096 66.7181C96.2729 48.1285 83.1781 19.2021 58.4988 19.2021C33.9213 19.2021 20.5095 48.1876 36.5646 66.9079C41.093 72.1896 44.0248 78.4542 45.1975 84.9897H44.7739C44.2789 84.9897 43.8784 85.3902 43.8784 85.8852C43.8784 86.0721 43.8784 105.097 43.8784 104.78C43.8784 104.872 43.9011 104.958 43.9055 105.048C23.8639 98.8057 9.25296 80.1278 9.25296 58.0584C9.25296 30.8998 31.348 8.80472 58.5067 8.80472C85.6645 8.80472 107.76 30.8998 107.76 58.0584C107.76 80.2276 93.0197 98.9826 72.8389 105.14Z" fill="#001571"/>
<path d="M58.4981 10.9512C58.0031 10.9512 57.6025 11.3517 57.6025 11.8467V15.1795C57.6025 15.6745 58.0031 16.0751 58.4981 16.0751C58.9931 16.0751 59.3936 15.6745 59.3936 15.1795V11.8467C59.3936 11.3517 58.9931 10.9512 58.4981 10.9512Z" fill="#001571"/>
<path d="M39.4929 16.7044C39.2437 16.2741 38.6954 16.129 38.2695 16.3765C37.8409 16.6239 37.694 17.1714 37.9415 17.5999L39.6075 20.4859C39.8556 20.9156 40.4048 21.0601 40.831 20.8139C41.2595 20.5664 41.4064 20.0189 41.1589 19.5904L39.4929 16.7044Z" fill="#001571"/>
<path d="M27.5675 32.524L24.6806 30.8571C24.253 30.6088 23.7046 30.7557 23.4571 31.1851C23.2096 31.6136 23.3566 32.1611 23.7851 32.4086L26.6719 34.0754C27.099 34.3221 27.6477 34.1764 27.8954 33.7475C28.1429 33.3189 27.996 32.7715 27.5675 32.524Z" fill="#001571"/>
<path d="M22.2635 50.5215H18.9307C18.4357 50.5215 18.0352 50.922 18.0352 51.417C18.0352 51.912 18.4357 52.3125 18.9307 52.3125H22.2635C22.7585 52.3125 23.159 51.912 23.159 51.417C23.159 50.922 22.7585 50.5215 22.2635 50.5215Z" fill="#001571"/>
<path d="M26.6719 68.7554L23.7851 70.4222C23.3566 70.6697 23.2096 71.2172 23.4571 71.6457C23.7053 72.0754 24.2544 72.2198 24.6806 71.9737L27.5675 70.3068C27.996 70.0593 28.1429 69.5118 27.8954 69.0833C27.6462 68.653 27.0978 68.5079 26.6719 68.7554Z" fill="#001571"/>
<path d="M93.2147 70.4246L90.3288 68.7577C89.902 68.5137 89.3528 68.6554 89.1062 69.0857C88.8578 69.5142 89.0047 70.0616 89.4333 70.3092L92.3192 71.976C93.3405 72.5623 94.2478 71.0212 93.2147 70.4246Z" fill="#001571"/>
<path d="M98.0662 50.5215H94.7324C94.2374 50.5215 93.8369 50.922 93.8369 51.417C93.8369 51.912 94.2374 52.3125 94.7324 52.3125H98.0662C98.5612 52.3125 98.9617 51.912 98.9617 51.417C98.9617 50.922 98.5612 50.5215 98.0662 50.5215Z" fill="#001571"/>
<path d="M92.3192 30.8562L89.4333 32.523C89.0047 32.7705 88.8578 33.318 89.1062 33.7465C89.35 34.1731 89.8978 34.3219 90.3288 34.0744L93.2147 32.4076C93.6433 32.1601 93.7902 31.6126 93.5418 31.1841C93.2952 30.7538 92.746 30.6104 92.3192 30.8562Z" fill="#001571"/>
<path d="M78.73 16.3743C78.3032 16.1312 77.754 16.2729 77.5074 16.7023L75.8406 19.5882C75.5922 20.0168 75.7391 20.5642 76.1676 20.8117C76.5981 21.0588 77.1462 20.9108 77.3902 20.4838L79.0571 17.5978C79.3055 17.1693 79.1585 16.6218 78.73 16.3743Z" fill="#001571"/>
</svg>
