<svg width="117" height="118" viewBox="0 0 117 118" fill="none" xmlns="http://www.w3.org/2000/svg">
<path d="M44.0029 36.6973C45.7529 36.6973 47.6284 37.4167 48.795 38.5638C49.9422 39.7305 50.6616 41.3249 50.6616 43.0748V55.6746C47.1423 55.6746 44.284 52.8163 44.284 49.2969L44.0029 36.6973Z" fill="#001571"/>
<path d="M56.791 22.1953H106.464V56.5977H56.791V22.1953Z" fill="white"/>
<path d="M53.6914 16.0547H109.559V22.1944H53.6914V16.0547Z" fill="white"/>
<path d="M84.8544 65.386C84.8544 67.177 83.4037 68.6278 81.6305 68.6278C79.8394 68.6278 78.3887 67.177 78.3887 65.386C78.3887 63.6129 79.8394 62.1621 81.6305 62.1621C83.4037 62.1621 84.8544 63.6129 84.8544 65.386Z" fill="#E6E8F1"/>
<path d="M1.28223 74.3438H65.3121V83.0285H1.28223V74.3438Z" fill="white"/>
<path d="M12.4004 83.0273H54.1944V116.312H12.4004V83.0273Z" fill="white"/>
<path d="M39.8973 95.2258V104.109C39.8973 105.918 39.163 107.566 37.963 108.766C36.7629 109.966 35.1152 110.7 33.3062 110.7C29.6525 110.7 26.6973 107.745 26.6973 104.109V95.2258C26.6973 91.59 29.6525 88.6348 33.3062 88.6348C36.9421 88.6347 39.8973 91.59 39.8973 95.2258Z" fill="#E6E8F1"/>
<path d="M12.4002 91.3162H7.42395L1.28223 83.0273H12.4002V91.4931" fill="#001571"/>
<path d="M47.9399 42.8401C47.9608 44.686 46.4716 46.1754 44.6467 46.1962V46.4899C44.6885 52.3213 39.9689 57.1038 34.1377 57.1458C28.2853 57.1878 23.5448 52.4682 23.5028 46.6368V46.3431C21.6359 46.3641 20.1467 44.8957 20.1467 43.029C20.1257 41.204 21.594 39.6937 23.4398 39.6727H23.4818C23.5028 39.0015 23.6077 38.3513 23.7545 37.743C24.8453 33.1282 28.9565 29.6463 33.9488 29.6253C36.8645 29.6043 39.5075 30.7579 41.4373 32.6668C43.1573 34.3449 44.311 36.6312 44.5208 39.1483C44.5417 39.2742 44.5627 39.4 44.5627 39.5259H44.5837C46.4086 39.5259 47.9399 41.0152 47.9399 42.8401Z" fill="white"/>
<path d="M44.5221 39.1483C43.2635 39.9034 41.7952 40.323 40.222 40.323C37.4741 40.323 35.041 39.0435 33.4888 37.0297C32.0204 38.2254 30.1745 38.9386 28.1189 38.9386C26.5247 38.9386 25.0354 38.4981 23.7559 37.743C24.8467 33.1282 28.9579 29.6463 33.9502 29.6253C36.8659 29.6043 39.5089 30.7579 41.4386 32.6668C43.1587 34.3449 44.3123 36.6312 44.5221 39.1483Z" fill="#001571"/>
<path d="M54.1953 91.3162H59.1716L65.3133 83.0273H54.1953V91.4931" fill="#001571"/>
<path d="M93.1064 35.8936H99.3787V50.7091H93.1064V35.8936Z" fill="#001571"/>
<path d="M82.8857 42.4209H89.158V50.7063H82.8857V42.4209Z" fill="#001571"/>
<path d="M72.6592 38.8877H78.9314V50.7086H72.6592V38.8877Z" fill="#001571"/>
<path d="M62.4385 45.5107H68.7107V50.7048H62.4385V45.5107Z" fill="#001571"/>
<path d="M115.208 79.6706C114.746 79.4949 114.228 79.7301 114.053 80.1919C109.408 92.4869 100.654 103.06 89.4028 109.965C88.9813 110.224 88.8492 110.776 89.1081 111.198C89.3685 111.62 89.9193 111.749 90.3403 111.492C101.927 104.381 110.943 93.4891 115.729 80.825C115.904 80.3624 115.67 79.8455 115.208 79.6706Z" fill="#001571"/>
<path d="M84.461 112.683C82.3018 113.741 80.0534 114.677 77.7778 115.464C77.3108 115.626 77.0625 116.137 77.2242 116.604C77.386 117.071 77.8945 117.318 78.3638 117.158C80.7075 116.346 83.025 115.381 85.2499 114.29C85.6941 114.073 85.8769 113.536 85.6591 113.092C85.4431 112.648 84.9053 112.46 84.461 112.683Z" fill="#001571"/>
<path d="M2.49963 36.2496C2.95977 36.4448 3.48232 36.2314 3.67676 35.7809C4.62825 33.5683 5.72754 31.3907 6.94402 29.3093C7.19326 28.8817 7.04983 28.3334 6.62306 28.0841C6.19366 27.8349 5.64796 27.9792 5.39784 28.4051C4.14463 30.5503 3.01212 32.7935 2.03089 35.0725C1.83585 35.5273 2.04574 36.0538 2.49963 36.2496Z" fill="#001571"/>
<path d="M10.422 24.0212C17.8328 13.9562 28.4277 6.32762 40.2567 2.54003C40.728 2.38961 40.9878 1.88501 40.8365 1.4145C40.6861 0.943991 40.1841 0.684271 39.711 0.834683C27.5261 4.73597 16.6119 12.5937 8.97899 22.9595C8.68603 23.3574 8.77085 23.918 9.16965 24.2118C9.57032 24.5052 10.1295 24.4184 10.422 24.0212Z" fill="#001571"/>
<path d="M116.565 39.9853C114.554 33.9216 111.585 28.2528 107.793 23.0831H109.552C110.053 23.0831 110.447 22.689 110.447 22.1876V16.0443C110.447 15.5607 110.053 15.1488 109.552 15.1488H89.7572C80.8906 8.8184 70.0637 5.06348 58.362 5.06348C28.4879 5.06348 4.18285 29.3606 4.18285 59.2251C4.18285 64.1497 4.87537 68.9099 6.1137 73.4473H1.28322C0.781671 73.4473 0.387695 73.8413 0.387695 74.3428V83.0114C0.387695 83.6745 0.598394 83.4269 6.71003 91.8414C6.87128 92.0741 7.13986 92.2174 7.42648 92.2174H11.51V116.307C11.51 116.809 11.9041 117.202 12.4055 117.202H54.1906C54.6921 117.202 55.0862 116.809 55.0862 116.307V113.272C56.1718 113.341 57.2592 113.404 58.362 113.404C88.236 113.404 112.541 89.0992 112.541 59.2251C112.541 50.9831 110.659 43.1831 107.349 36.1837V25.5729C110.544 30.2057 113.096 35.2149 114.865 40.5485C115.019 41.0119 115.519 41.2732 115.996 41.117C116.466 40.9613 116.72 40.4541 116.565 39.9853ZM81.6295 63.0593C82.919 63.0593 83.9578 64.098 83.9578 65.3876C83.9578 66.6771 82.919 67.7339 81.6295 67.7339C80.3399 67.7339 79.2832 66.6771 79.2832 65.3876C79.2832 64.098 80.3399 63.0593 81.6295 63.0593ZM57.6832 55.698V23.0831H105.558V55.698H57.6832ZM108.656 21.2921C88.3467 21.2921 66.6017 21.2921 54.5846 21.2921V16.9399H108.656V21.2921ZM2.17874 75.2383C48.5274 75.2453 -16.4103 75.2394 64.4175 75.2383V82.1338C46.0204 82.1338 20.5648 82.1338 2.17874 82.1338V75.2383ZM24.119 45.704C23.9399 45.5428 23.707 45.4533 23.4562 45.4533C22.1692 45.4533 21.0384 44.4305 21.0384 43.0175C21.0384 41.717 22.0239 40.6017 23.4742 40.5637C24.492 40.5637 24.3636 39.4358 24.4235 39.0771C27.325 40.295 30.7637 39.9726 33.3428 38.2532C35.116 40.1517 37.5697 41.2085 40.2205 41.2085C41.2414 41.2085 42.2444 41.0472 43.1936 40.7248C43.5518 40.6174 43.8742 40.4741 44.1966 40.3309C44.4917 40.4572 44.5359 40.3921 44.9846 40.4563C47.94 40.9641 47.5906 45.292 44.6264 45.292C44.1429 45.3099 43.7488 45.704 43.7488 46.1875C43.7385 46.39 43.819 47.7049 43.3906 49.1428C42.2482 53.3317 38.3429 56.2532 34.1309 56.2532C33.9515 56.2532 33.8799 56.2532 34.0593 56.2532C28.9241 56.2532 24.4525 52.053 24.4056 46.6353V46.3487C24.4056 46.098 24.2802 45.8831 24.119 45.704ZM26.6623 33.9189C28.237 31.9514 31.0755 30.5159 34.0235 30.5159C38.455 30.5159 41.985 33.5349 43.1041 36.892C43.1041 36.892 43.122 36.892 43.1041 36.91L43.1578 38.8264C42.2444 39.2205 41.2592 39.4175 40.2205 39.4175C37.8384 39.4175 35.6355 38.3607 34.2025 36.4801C34.0414 36.2831 33.8265 36.1578 33.5936 36.1398H33.4862C33.2892 36.1398 33.0743 36.2116 32.913 36.3368C30.6563 38.1817 27.4503 38.5399 24.8175 37.2861C24.8175 36.6912 26.2987 34.1007 26.6623 33.9189ZM45.5399 46.9935C47.4384 46.5637 48.8534 44.8442 48.8354 42.8383C48.8354 40.7966 47.3488 39.0771 45.3787 38.701C45.3608 38.6114 45.3608 38.5219 45.325 38.4324C45.307 38.2353 45.2891 38.0383 45.2354 37.8592C45.2354 37.8054 45.2175 37.7518 45.1996 37.7159C48.211 38.3276 49.7667 40.6232 49.7667 43.0711V54.7129C47.2055 54.2831 45.2354 52.0801 45.1816 49.3936C45.3965 48.6234 45.5041 47.8175 45.5399 46.9935ZM31.2294 57.6861C32.125 57.919 33.0743 58.0442 34.0593 58.0442H34.1489C35.7358 58.0139 36.5804 57.7378 36.8597 57.684C37.0829 59.1721 37.5448 60.6685 38.2467 62.1507C38.0715 64.3568 36.2687 66.0622 34.0412 66.0622C31.8124 66.0622 30.0103 64.3565 29.8363 62.1505C30.5463 60.6396 31.0022 59.1659 31.2233 57.6839C31.2255 57.6845 31.2272 57.6856 31.2294 57.6861ZM28.1354 62.8841C28.6399 65.7276 31.0729 67.8532 34.0412 67.8532C37.0089 67.8532 39.4419 65.7271 39.9474 62.8841H45.3594C47.767 62.8841 49.7259 64.8431 49.7259 67.2507V73.4473H44.3607V69.8717C44.3607 69.3767 43.9601 68.9761 43.4651 68.9761C42.9701 68.9761 42.5696 69.3767 42.5696 69.8717V73.4473H42.5668H25.516H25.5136V69.8717C25.5136 69.3767 25.1131 68.9761 24.6181 68.9761C24.1231 68.9761 23.7225 69.3767 23.7225 69.8717V73.4473H18.3573V67.2507C18.3573 64.8431 20.3162 62.8841 22.7238 62.8841H28.1354ZM55.0862 83.9249H63.5399L58.7219 90.4263H55.0862V83.9249ZM7.87424 90.4264L3.05633 83.9249H11.51V90.4264H7.87424ZM53.2951 115.411H13.3011C13.3011 108.575 13.3011 95.6863 13.3011 83.9249H53.2951V115.411ZM110.75 59.2251C110.75 88.1118 87.2487 111.613 58.362 111.613C57.2588 111.613 56.1716 111.548 55.0862 111.477V92.2174H59.1697C59.4563 92.2174 59.7249 92.0741 59.8862 91.8414C66.2102 83.1346 66.2086 83.6357 66.2086 83.0114V74.3428C66.2086 73.8413 65.8145 73.4473 65.3131 73.4473H51.517V67.2507C51.517 63.8557 48.7543 61.0931 45.3594 61.0931H39.7204C39.1227 59.7638 38.753 58.4305 38.5894 57.1134C40.8824 56.1281 42.7817 54.4085 44.0175 52.2592C45.1459 54.8025 47.7071 56.5757 50.6622 56.5757C51.1458 56.5757 51.5577 56.1637 51.5577 55.6802V43.0711C51.5577 39.4004 48.828 36.1682 44.6264 35.8354C43.3105 32.2152 39.2223 28.7249 33.9518 28.7249C27.8044 28.7457 23.0856 33.6288 22.6503 38.8622C20.7133 39.233 19.2142 40.9537 19.2473 43.0354C19.2473 45.1427 20.7605 46.7919 22.6145 47.1548C22.8473 51.5965 25.6234 55.3936 29.4922 57.0771C29.4937 57.0778 29.4953 57.0781 29.4968 57.0788C29.3363 58.4072 28.9707 59.7299 28.361 61.0931H22.7238C19.3289 61.0931 16.5662 63.8558 16.5662 67.2507V73.4473H7.96924C6.68827 68.9199 5.97389 64.157 5.97389 59.2251C5.97389 30.348 29.4752 6.85454 58.362 6.85454C68.7473 6.85454 78.4188 9.91694 86.5699 15.1488H53.6891C53.1877 15.1488 52.7936 15.5607 52.7936 16.0444V22.1876C52.7936 22.6891 53.1877 23.0831 53.6891 23.0831H55.8922V56.5935C55.8922 57.0951 56.2861 57.489 56.7877 57.489H80.7281V61.3775C78.8862 61.7916 77.4922 63.4196 77.4922 65.3876C77.4922 67.6623 79.3548 69.5249 81.6295 69.5249C83.904 69.5249 85.7489 67.6623 85.7489 65.3876C85.7489 63.4174 84.3697 61.7876 82.525 61.3757C82.5231 61.3752 82.5211 61.3755 82.5192 61.375V57.489H106.453C106.955 57.489 107.349 57.095 107.349 56.5935V40.7006C109.538 46.464 110.75 52.7038 110.75 59.2251Z" fill="#001571"/>
<path d="M103.896 10.9209H106.886C107.381 10.9209 107.781 10.5204 107.781 10.0254C107.781 9.53041 107.381 9.12988 106.886 9.12988H103.896C103.401 9.12988 103 9.53041 103 10.0254C103 10.5204 103.401 10.9209 103.896 10.9209Z" fill="#001571"/>
<path d="M91.7344 10.9209H100.271C100.766 10.9209 101.166 10.5204 101.166 10.0254C101.166 9.53041 100.766 9.12988 100.271 9.12988H91.7344C91.2394 9.12988 90.8389 9.53041 90.8389 10.0254C90.8389 10.5204 91.2394 10.9209 91.7344 10.9209Z" fill="#001571"/>
<path d="M33.31 87.7393C29.1727 87.7393 25.8057 91.0885 25.8057 95.2258V104.109C25.8057 108.229 29.1727 111.596 33.31 111.596C35.2982 111.596 37.1787 110.808 38.5936 109.393C40.0086 107.978 40.7967 106.097 40.7967 104.109V95.2258C40.7967 91.0885 37.4295 87.7393 33.31 87.7393ZM39.0057 104.109C39.0057 105.632 38.4146 107.047 37.3399 108.139C36.2474 109.214 34.8325 109.805 33.3101 109.805C30.1579 109.805 27.5967 107.244 27.5967 104.109V95.2258C27.5967 92.0915 30.1579 89.5303 33.3101 89.5303C36.4444 89.5303 39.0057 92.0915 39.0057 95.2258V104.109Z" fill="#001571"/>
<path d="M29.6955 45.6733C30.5106 45.6733 31.1714 45.0126 31.1714 44.1975C31.1714 43.3824 30.5106 42.7217 29.6955 42.7217C28.8805 42.7217 28.2197 43.3824 28.2197 44.1975C28.2197 45.0126 28.8805 45.6733 29.6955 45.6733Z" fill="#001571"/>
<path d="M30.1562 49.9408C29.7994 50.2837 29.788 50.8503 30.13 51.2072C31.1663 52.2863 32.555 52.8801 34.0418 52.8801C35.5293 52.8801 36.9181 52.2863 37.9535 51.2072C38.2955 50.8503 38.2841 50.2836 37.9273 49.9408C37.5696 49.5989 37.0038 49.6111 36.661 49.9671C35.274 51.4136 32.813 51.4153 31.4225 49.9671C31.0797 49.6094 30.5121 49.5989 30.1562 49.9408Z" fill="#001571"/>
<path d="M38.1448 45.6733C38.9598 45.6733 39.6206 45.0126 39.6206 44.1975C39.6206 43.3824 38.9598 42.7217 38.1448 42.7217C37.3297 42.7217 36.6689 43.3824 36.6689 44.1975C36.6689 45.0126 37.3297 45.6733 38.1448 45.6733Z" fill="#001571"/>
<path d="M95.6854 26.8264L85.9955 34.5555L76.3232 27.5645C76.0101 27.3389 75.5869 27.3389 75.2738 27.5645L65.0505 34.9543C64.6499 35.2438 64.5598 35.8044 64.8493 36.2049C65.1392 36.6064 65.7007 36.695 66.0999 36.406L75.7985 29.3958L85.4971 36.406C85.8206 36.6422 86.2631 36.6299 86.5806 36.3807L96.803 28.2274C97.1896 27.9187 97.2525 27.3555 96.9447 26.968C96.6342 26.5824 96.0728 26.5194 95.6854 26.8264Z" fill="#001571"/>
<path d="M104.414 60.4346H98.0947C97.5998 60.4346 97.1992 60.8351 97.1992 61.3301C97.1992 61.8251 97.5998 62.2256 98.0947 62.2256H104.414C104.909 62.2256 105.31 61.8251 105.31 61.3301C105.31 60.8351 104.909 60.4346 104.414 60.4346Z" fill="#001571"/>
<path d="M94.2873 60.4346H92.0625C91.5675 60.4346 91.167 60.8351 91.167 61.3301C91.167 61.8251 91.5675 62.2256 92.0625 62.2256H94.2873C94.7823 62.2256 95.1829 61.8251 95.1829 61.3301C95.1829 60.8351 94.7823 60.4346 94.2873 60.4346Z" fill="#001571"/>
</svg>
