<svg width="117" height="116" viewBox="0 0 117 116" fill="none" xmlns="http://www.w3.org/2000/svg">
<path d="M32.1809 90.4097L28.8044 90.5389L26.3311 82.4531H29.7577L32.1809 90.4097Z" fill="#001571"/>
<path d="M28.1006 47.2684V74.1467C40.9462 75.5439 53.7915 80.0139 66.637 87.5794V33.8359C53.7915 41.4012 40.9462 45.8712 28.1006 47.2684Z" fill="white"/>
<path d="M28.1094 47.292V74.0839H10.6183C8.18829 74.0839 6.19824 72.0938 6.19824 69.664V51.6909C6.19824 49.2611 8.18829 47.292 10.6183 47.292H28.1094Z" fill="white"/>
<path d="M24.9951 102.479C22.4823 102.479 20.286 100.783 19.6501 98.3519L12.3506 74.084H23.7723L30.3401 95.5553C31.2561 99.0567 28.6143 102.479 24.9951 102.479Z" fill="white"/>
<path d="M6.19779 53.1387V68.2419L1.19141 65.6654V55.7153L6.19779 53.1387Z" fill="#001571"/>
<path d="M75.622 60.6887C75.622 65.6539 71.603 69.6858 66.6377 69.6858V51.6914C71.603 51.6914 75.622 55.7233 75.622 60.6887Z" fill="#001571"/>
<path d="M73.6807 75.1113H114.98V101.454H73.6807V75.1113Z" fill="white"/>
<path d="M114.978 101.454H73.6777L94.328 84.4629L114.978 101.454Z" fill="white"/>
<path d="M114.978 75.1113H73.6777L94.328 92.1021L114.978 75.1113Z" fill="#001571"/>
<path d="M114.981 6.53529V29.6749C114.981 31.6193 113.404 33.1955 111.46 33.1955H89.1858L76.4527 42.8177V33.1955H74.254C72.3096 33.1955 70.7334 31.6193 70.7334 29.6749V6.53529C70.7334 4.59089 72.3096 3.01465 74.254 3.01465H111.46C113.404 3.01467 114.981 4.59089 114.981 6.53529Z" fill="white"/>
<path d="M77.0099 110.542C71.3219 112.457 65.3786 113.428 59.3425 113.428C52.1032 113.428 45.0159 112.022 38.2803 109.249C37.822 109.057 37.299 109.277 37.1119 109.736C36.923 110.194 37.1416 110.717 37.5981 110.904C44.5507 113.767 51.867 115.219 59.3425 115.219C65.5727 115.219 71.7085 114.217 77.5801 112.238C78.0488 112.081 78.3007 111.574 78.1433 111.105C77.9858 110.636 77.4769 110.384 77.0099 110.542Z" fill="#001571"/>
<path d="M5.80686 39.9332C6.26913 40.0954 6.78273 39.858 6.95075 39.3875C11.9863 25.1448 22.7921 13.4103 36.5939 7.19416C37.0452 6.99127 37.2463 6.4613 37.0435 6.01004C36.8388 5.55703 36.3036 5.3559 35.8593 5.56053C21.6132 11.9761 10.4611 24.0884 5.26115 38.7893C5.09673 39.2563 5.3416 39.767 5.80686 39.9332Z" fill="#001571"/>
<path d="M46.2347 3.8863C48.7953 3.26363 51.4259 2.82111 54.0548 2.57275C54.548 2.52552 54.9083 2.08825 54.8628 1.59677C54.8156 1.10354 54.3521 0.760712 53.8869 0.788706C51.1723 1.04757 48.4543 1.50233 45.8114 2.14424C45.3304 2.26143 45.0366 2.74592 45.152 3.22691C45.2619 3.67793 45.7124 4.00096 46.2347 3.8863Z" fill="#001571"/>
<path d="M114.448 41.8843C114.31 41.4085 113.815 41.1339 113.338 41.2738C112.864 41.412 112.589 41.9087 112.727 42.3845C114.184 47.3956 114.922 52.6043 114.922 57.8672C114.922 60.727 114.677 63.6969 114.196 66.693C114.007 67.8676 115.776 68.1551 115.963 66.9764C116.461 63.8875 116.713 60.8232 116.713 57.8672C116.713 52.4346 115.951 47.058 114.448 41.8843Z" fill="#001571"/>
<path d="M115.876 75.1104C115.876 74.5973 115.403 74.2149 114.98 74.2149H106.74C108.516 69.0845 109.509 63.5913 109.509 57.8646C109.509 49.2607 107.301 41.1748 103.467 34.0913H111.459C113.894 34.0913 115.876 32.1096 115.876 29.6749V6.53651C115.876 4.1018 113.894 2.12012 111.459 2.12012H74.2533C71.8185 2.12012 69.8369 4.10182 69.8369 6.53651V8.83611C66.4486 8.10892 62.9447 7.6979 59.3424 7.6979C35.6351 7.6979 15.7529 24.2536 10.5518 46.4043C7.65106 46.4401 5.30151 48.7952 5.30151 51.6922V52.5912L0.780178 54.9174C0.481091 55.0696 0.293945 55.3775 0.293945 55.7133V65.6637C0.293945 65.9995 0.481091 66.3074 0.780178 66.4595L5.30151 68.7858V69.6656C5.30151 72.597 7.68548 74.981 10.6169 74.981H11.6852L18.7833 98.5812C19.5232 101.404 22.0768 103.375 24.9942 103.375C27.5223 103.375 29.9715 101.919 30.9892 99.1583C39.064 104.721 48.8171 108.016 59.3424 108.016C67.663 108.016 75.498 105.95 82.4124 102.349H114.98H115.015C115.491 102.349 115.969 101.965 115.876 101.331V75.1104ZM114.085 99.5553L100.382 88.2821L114.085 77.006V99.5553ZM94.3308 90.943L76.1772 76.006H112.483L94.3308 90.943ZM74.5751 77.0059L88.2799 88.2824L74.5751 99.5578V77.0059ZM71.6279 6.53651C71.6279 5.08829 72.805 3.91116 74.2533 3.91116H111.459C112.908 3.91116 114.085 5.08829 114.085 6.53651V29.6749C114.085 31.1232 112.908 32.3003 111.459 32.3003H89.185C88.9909 32.3003 88.8002 32.3632 88.6446 32.4822L77.3473 41.0176V33.1958C77.3473 32.7008 76.9468 32.3003 76.4518 32.3003H74.2532C72.805 32.3003 71.6279 31.1232 71.6279 29.6749L71.6279 6.53651ZM2.08499 65.118V56.259L5.30153 54.6044V66.7726L2.08499 65.118ZM7.09257 69.6656C7.09257 69.3232 7.09257 50.8906 7.09257 51.6922C7.09257 49.7612 8.67372 48.1888 10.6169 48.1888H27.2051V73.19C26.7647 73.19 9.54474 73.19 10.6169 73.19C8.67372 73.19 7.09257 71.6088 7.09257 69.6656ZM24.9943 101.584C22.8902 101.584 21.0484 100.162 20.5062 98.0967L13.5554 74.981H23.1088C23.1648 75.1642 28.2458 91.7752 27.9484 90.8031C27.9488 90.8043 27.9501 90.8047 27.9504 90.8059L29.4736 95.7844C30.2404 98.7159 28.0285 101.584 24.9943 101.584ZM27.5429 83.3503H29.0958L30.9866 89.5612L29.4604 89.6189L27.5429 83.3503ZM59.3424 106.225C48.9165 106.225 39.2793 102.871 31.3735 97.2374C31.4004 96.5945 31.3669 95.9446 31.1965 95.2947L30.0026 91.3916L32.2162 91.3068C32.4925 91.2963 32.7496 91.1564 32.9105 90.9308C33.0715 90.7034 33.1187 90.4165 33.0382 90.1507L30.6158 82.1942C30.5003 81.8164 30.1523 81.5593 29.7587 81.5593H26.9951L24.9829 74.981H27.8189C29.1176 75.4225 44.7122 75.7056 66.1813 88.3509C66.7771 88.7009 67.5316 88.2745 67.5316 87.5796V70.5368C72.5613 70.0817 76.5166 65.842 76.5166 60.6894C76.5166 55.5368 72.5613 51.2971 67.5316 50.842V33.836C67.5316 33.5141 67.3602 33.2185 67.0804 33.0576C66.8023 32.8985 66.4594 32.902 66.1813 33.0646C53.5216 40.5209 40.6764 45.0003 28.0045 46.3785C27.9816 46.381 27.963 46.3936 27.9407 46.3978H12.3977C17.5636 25.2472 36.6297 9.48894 59.3424 9.48894C62.9488 9.48894 66.4543 9.91243 69.8369 10.666V29.6749C69.8369 32.1096 71.8186 34.0913 74.2533 34.0913H75.5563V42.8174C75.5563 43.5532 76.4016 43.9789 76.9923 43.531L89.4859 34.0913H101.429C105.416 41.1197 107.718 49.2232 107.718 57.8647C107.718 63.6037 106.695 69.1036 104.851 74.2149H73.6795C73.2582 74.2149 72.784 74.5957 72.784 75.1105V101.453C72.784 101.966 73.257 102.349 73.6795 102.349H78.287C72.4646 104.836 66.0643 106.225 59.3424 106.225ZM67.5316 52.6367C71.5719 53.0844 74.7255 56.5249 74.7255 60.6894C74.7255 64.8539 71.5719 68.2943 67.5316 68.7421V52.6367ZM65.7405 86.0246C53.5676 79.0611 41.2201 74.8006 29.0031 73.3484V48.0671C41.2165 46.6166 53.5641 42.3543 65.7405 35.3909V86.0246ZM76.1772 100.558L89.6885 89.4415L93.7623 92.7935C93.9268 92.9299 94.1296 92.9981 94.3308 92.9981C94.5319 92.9981 94.7348 92.9299 94.8992 92.7935L98.9726 89.4416L112.483 100.558H76.1772Z" fill="#001571"/>
<path d="M82.4086 20.6853C84.1584 20.6853 85.577 19.2668 85.577 17.517C85.577 15.7672 84.1584 14.3486 82.4086 14.3486C80.6588 14.3486 79.2402 15.7672 79.2402 17.517C79.2402 19.2668 80.6588 20.6853 82.4086 20.6853Z" fill="#001571"/>
<path d="M92.8559 20.6853C94.6057 20.6853 96.0242 19.2668 96.0242 17.517C96.0242 15.7672 94.6057 14.3486 92.8559 14.3486C91.106 14.3486 89.6875 15.7672 89.6875 17.517C89.6875 19.2668 91.106 20.6853 92.8559 20.6853Z" fill="#001571"/>
<path d="M103.303 20.6853C105.053 20.6853 106.471 19.2668 106.471 17.517C106.471 15.7672 105.053 14.3486 103.303 14.3486C101.553 14.3486 100.135 15.7672 100.135 17.517C100.135 19.2668 101.553 20.6853 103.303 20.6853Z" fill="#001571"/>
<path d="M113.586 105.91H101.918C101.423 105.91 101.022 106.311 101.022 106.806C101.022 107.301 101.423 107.701 101.918 107.701H113.586C114.081 107.701 114.482 107.301 114.482 106.806C114.482 106.311 114.081 105.91 113.586 105.91Z" fill="#001571"/>
<path d="M97.5291 105.91H94.3301C93.8351 105.91 93.4346 106.311 93.4346 106.806C93.4346 107.301 93.8351 107.701 94.3301 107.701H97.5291C98.0241 107.701 98.4247 107.301 98.4247 106.806C98.4247 106.311 98.0241 105.91 97.5291 105.91Z" fill="#001571"/>
<path d="M11.7471 87.5611C11.6019 87.0871 11.0982 86.8212 10.6294 86.9646C10.1554 87.1098 9.88957 87.61 10.033 88.0823L12.5674 96.3869C12.7143 96.8643 13.2189 97.126 13.685 96.9833C14.159 96.8381 14.4249 96.3379 14.2815 95.8656L11.7471 87.5611Z" fill="#001571"/>
<path d="M10.4357 83.2751L9.95118 81.6869C9.80602 81.2147 9.30229 80.947 8.83353 81.0905C8.35953 81.2356 8.09367 81.7359 8.2371 82.2081L8.72159 83.7963C8.87107 84.2821 9.38046 84.5331 9.83924 84.3927C10.3132 84.2475 10.5791 83.7473 10.4357 83.2751Z" fill="#001571"/>
</svg>
