<svg width="121" height="121" viewBox="0 0 121 121" fill="none" xmlns="http://www.w3.org/2000/svg">
<path d="M84.1019 41.2998V52.8489C84.1019 53.3883 83.6647 53.8255 83.1254 53.8255H72.4199C71.8806 53.8255 71.4434 53.3883 71.4434 52.8489V41.2998C71.4434 40.7605 71.8806 40.3232 72.4199 40.3232H83.1254C83.6647 40.3232 84.1019 40.7605 84.1019 41.2998Z" fill="white"/>
<path d="M84.1019 43.0563V41.2998C84.1019 40.7605 83.6647 40.3232 83.1254 40.3232H72.4199C71.8806 40.3232 71.4434 40.7605 71.4434 41.2998V43.0563H84.1019Z" fill="#001571"/>
<path d="M68.2525 52.0947H67.1452C66.2533 52.0947 65.5303 52.8178 65.5303 53.7096V56.0481C65.5303 57.2458 66.5012 58.2167 67.6988 58.2167C68.8965 58.2167 69.8674 57.2458 69.8674 56.0481V53.7096C69.8674 52.8178 69.1443 52.0947 68.2525 52.0947Z" fill="white"/>
<path d="M77.7727 51.6109C79.6622 51.6109 81.1939 50.0792 81.1939 48.1897C81.1939 46.3003 79.6622 44.7686 77.7727 44.7686C75.8833 44.7686 74.3516 46.3003 74.3516 48.1897C74.3516 50.0792 75.8833 51.6109 77.7727 51.6109Z" fill="#001571"/>
<path d="M65.366 70.6437C63.2798 72.9599 60.3026 74.2884 57.1979 74.2884H57.191C57.0943 74.2884 57.0195 74.3667 57.0195 74.4633C57.0195 74.56 57.1012 74.6383 57.1979 74.6383C60.4013 74.6383 63.4731 73.2677 65.6257 70.8781C65.6906 70.8064 65.6848 70.6957 65.613 70.6311C65.5413 70.5659 65.4306 70.5724 65.366 70.6437Z" fill="#001571"/>
<path d="M46.1984 63.2952C46.1984 60.3597 47.347 57.5977 49.4325 55.5186C49.5008 55.4503 49.501 55.3396 49.4329 55.2713C49.3647 55.2023 49.254 55.203 49.1855 55.2706C47.0337 57.416 45.8486 60.2657 45.8486 63.2952C45.8486 64.2452 45.9673 65.1908 46.2017 66.106C46.2258 66.2004 46.3224 66.2559 46.4145 66.232C46.5081 66.2081 46.5645 66.1128 46.5406 66.0192C46.3136 65.1324 46.1984 64.2158 46.1984 63.2952Z" fill="#001571"/>
<path d="M50.6396 54.4776C51.0889 54.1431 51.5661 53.8415 52.0582 53.5805C52.1434 53.5354 52.176 53.4295 52.1308 53.3441C52.0854 53.2587 51.9791 53.2259 51.8942 53.2717C51.3866 53.5409 50.8943 53.8521 50.4309 54.1968C50.3534 54.2545 50.3373 54.3642 50.3949 54.4417C50.4526 54.5192 50.5624 54.535 50.6396 54.4776Z" fill="#001571"/>
<path d="M66.3251 54.5522H64.4046C62.3722 52.8731 59.829 51.9531 57.1984 51.9531C56.9675 51.9531 56.7367 51.9601 56.5093 51.9741C56.4113 51.9811 56.3379 52.0651 56.3449 52.1595C56.3484 52.2575 56.4358 52.3379 56.5303 52.3239C56.7507 52.3099 56.9745 52.3029 57.1984 52.3029C59.6016 52.3029 61.9279 53.0935 63.8379 54.5522H61.9244C60.5169 53.788 58.9085 53.3485 57.1975 53.3485C51.7103 53.3485 47.2461 57.8107 47.2461 63.2956C47.2461 65.0849 47.7268 66.7616 48.558 68.2134V70.4513C48.558 71.7421 49.6075 72.795 50.8983 72.795C51.5489 72.795 52.1401 72.5292 52.5669 72.0954C52.5677 72.0946 52.5684 72.0937 52.5692 72.0928C53.9533 72.8236 55.5263 73.2428 57.1975 73.2428C60.8139 73.2428 63.9795 71.299 65.7201 68.4049H66.3251C66.9617 68.4049 67.4759 67.8871 67.4759 67.2505V57.4592V55.7031C67.4759 55.0665 66.9617 54.5522 66.3251 54.5522ZM66.3251 54.902C66.7693 54.902 67.1261 55.2589 67.1261 55.7031V57.2843H54.8197V55.7031C54.8197 55.2589 55.18 54.902 55.6208 54.902H66.3251ZM57.1975 53.6983C58.6042 53.6983 59.9392 54.0061 61.1441 54.5522H55.6208C54.9841 54.5522 54.4699 55.0665 54.4699 55.7031V57.4592V61.6887H50.184C49.6056 61.6887 49.1352 62.1591 49.1352 62.7371C49.1352 63.3154 49.6056 63.7858 50.184 63.7858H52.0494C52.4347 63.7858 52.7483 64.0994 52.7483 64.4944C52.7483 64.8797 52.4347 65.1933 52.0494 65.1933H51.5723C51.105 65.1933 50.7249 65.5735 50.7249 66.0405V66.32H50.3456C49.534 66.32 48.8449 66.8657 48.628 67.6108C48.6279 67.611 48.6279 67.6112 48.6279 67.6114C47.9702 66.3129 47.5959 64.8479 47.5959 63.2956C47.5959 58.0037 51.9032 53.6983 57.1975 53.6983ZM50.8983 72.4452C49.7999 72.4452 48.9078 71.5497 48.9078 70.4513V68.111C48.9078 67.3169 49.5515 66.6698 50.3456 66.6698C50.3815 66.6698 51.4954 66.6698 51.4545 66.6698C52.2486 66.6698 52.8922 67.3169 52.8922 68.111V70.4513C52.8922 71.5497 52.0002 72.4452 50.8983 72.4452ZM52.6633 71.9887C52.6638 71.9881 52.6643 71.9876 52.6648 71.9869C52.6718 71.9834 52.6718 71.9799 52.6753 71.9764C52.6759 71.9757 52.6765 71.9749 52.6771 71.9742V71.9887H52.6633ZM57.1975 72.893C55.6124 72.893 54.118 72.5033 52.799 71.8205C53.078 71.4361 53.242 70.9646 53.242 70.4513V68.111C53.242 67.1245 52.441 66.32 51.4545 66.32H51.0747V66.0405C51.0747 65.7662 51.298 65.5431 51.5723 65.5431H52.0494C52.6277 65.5431 53.0981 65.0727 53.0981 64.4848C53.0981 63.9064 52.6277 63.436 52.0494 63.436H50.184C49.7986 63.436 49.485 63.1224 49.485 62.7371C49.485 62.3517 49.7986 62.0385 50.184 62.0385H54.4699V67.2505C54.4699 67.8871 54.9841 68.4049 55.6208 68.4049H65.3088C63.6079 71.0974 60.6113 72.893 57.1975 72.893ZM66.3251 68.055H55.6208C55.18 68.055 54.8197 67.6947 54.8197 67.2505V57.6341H67.1261V67.2505C67.1261 67.6947 66.7693 68.055 66.3251 68.055Z" fill="#001571"/>
<path d="M56.5463 56.5232C56.7849 56.5232 56.9783 56.3298 56.9783 56.0912C56.9783 55.8526 56.7849 55.6592 56.5463 55.6592C56.3077 55.6592 56.1143 55.8526 56.1143 56.0912C56.1143 56.3298 56.3077 56.5232 56.5463 56.5232Z" fill="#001571"/>
<path d="M58.2953 56.5232C58.5339 56.5232 58.7273 56.3298 58.7273 56.0912C58.7273 55.8526 58.5339 55.6592 58.2953 55.6592C58.0567 55.6592 57.8633 55.8526 57.8633 56.0912C57.8633 56.3298 58.0567 56.5232 58.2953 56.5232Z" fill="#001571"/>
<path d="M63.089 56.2639H65.8318C65.9285 56.2639 66.0067 56.1856 66.0067 56.089C66.0067 55.9923 65.9285 55.9141 65.8318 55.9141H63.089C62.9923 55.9141 62.9141 55.9923 62.9141 56.089C62.9141 56.1856 62.9923 56.2639 63.089 56.2639Z" fill="#001571"/>
<path d="M61.4571 56.2639H62.1831C62.2797 56.2639 62.358 56.1856 62.358 56.089C62.358 55.9923 62.2797 55.9141 62.1831 55.9141H61.4571C61.3605 55.9141 61.2822 55.9923 61.2822 56.089C61.2822 56.1856 61.3605 56.2639 61.4571 56.2639Z" fill="#001571"/>
<path d="M50.8873 67.4336C50.6982 67.4336 50.5449 67.5868 50.5449 67.7759V68.5341C50.5449 68.7232 50.6982 68.8764 50.8873 68.8764C51.0763 68.8764 51.2296 68.7232 51.2296 68.5341V67.7759C51.2296 67.5868 51.0763 67.4336 50.8873 67.4336Z" fill="#001571"/>
<path d="M62.1215 61.6376C62.0446 61.5778 61.9353 61.5922 61.8759 61.668C61.8164 61.7442 61.8301 61.8542 61.9063 61.9136L62.9246 62.7069L61.9063 63.5001C61.8301 63.5595 61.8164 63.6695 61.8759 63.7457C61.9354 63.8218 62.0452 63.8354 62.1215 63.7761L63.3168 62.8449C63.3592 62.8117 63.3841 62.7608 63.3841 62.7069C63.3841 62.6529 63.3592 62.602 63.3168 62.5689L62.1215 61.6376Z" fill="#001571"/>
<path d="M60.0717 61.668C60.0123 61.5922 59.9023 61.5778 59.8261 61.6376L58.6308 62.5689C58.5884 62.602 58.5635 62.6529 58.5635 62.7069C58.5635 62.7609 58.5884 62.8117 58.6308 62.8449L59.8261 63.7761C59.9024 63.8354 60.0121 63.8218 60.0717 63.7457C60.1311 63.6695 60.1175 63.5595 60.0413 63.5001L59.0229 62.7069L60.0413 61.9136C60.1175 61.8542 60.1311 61.7442 60.0717 61.668Z" fill="#001571"/>
<path d="M61.379 60.9553C61.2823 60.9321 61.1901 60.9898 61.1672 61.0831L60.4436 64.0179C60.4204 64.1119 60.4778 64.2065 60.5714 64.2297C60.6689 64.2529 60.761 64.1929 60.7832 64.102L61.5067 61.1671C61.53 61.0732 61.4726 60.9786 61.379 60.9553Z" fill="#001571"/>
<path d="M68.4122 61.2988C68.3155 61.2988 68.2373 61.3771 68.2373 61.4737V64.3945C68.2373 64.4912 68.3155 64.5694 68.4122 64.5694C68.5089 64.5694 68.5871 64.4912 68.5871 64.3945V61.4737C68.5871 61.3771 68.5089 61.2988 68.4122 61.2988Z" fill="#001571"/>
<path d="M68.4122 59.2158C68.3155 59.2158 68.2373 59.294 68.2373 59.3907V60.253C68.2373 60.3496 68.3155 60.4279 68.4122 60.4279C68.5089 60.4279 68.5871 60.3496 68.5871 60.253V59.3907C68.5871 59.2941 68.5089 59.2158 68.4122 59.2158Z" fill="#001571"/>
<path d="M59.4327 69.7316H60.284C60.3807 69.7316 60.4589 69.6534 60.4589 69.5567C60.4589 69.4601 60.3807 69.3818 60.284 69.3818H59.4327C59.336 69.3818 59.2578 69.4601 59.2578 69.5567C59.2578 69.6534 59.336 69.7316 59.4327 69.7316Z" fill="#001571"/>
<path d="M56.0489 69.7316H58.5815C58.6782 69.7316 58.7564 69.6534 58.7564 69.5567C58.7564 69.4601 58.6782 69.3818 58.5815 69.3818H56.0489C55.9523 69.3818 55.874 69.4601 55.874 69.5567C55.874 69.6534 55.9523 69.7316 56.0489 69.7316Z" fill="#001571"/>
<path d="M114.611 92.2568V98.4895H18.4827C16.6645 98.4895 15.1904 97.0155 15.1904 95.1972V92.2568H114.611Z" fill="white"/>
<path d="M82.1039 49.9773V92.2574H15.1904V49.9773C15.1904 46.7194 17.8315 44.0781 21.0896 44.0781H76.2047C79.4626 44.0781 82.1039 46.7194 82.1039 49.9773Z" fill="white"/>
<path d="M112.552 78.0172V92.2562H82.1045V60.0889H98.5495L104.349 70.9247L112.552 78.0172Z" fill="white"/>
<path d="M98.5374 75.2618H89.2598V67.2559H94.2568L98.5374 75.2618Z" fill="#001571"/>
<path d="M106.084 96.6251C106.084 101.927 101.785 106.225 96.4838 106.225C91.1823 106.225 86.8838 101.927 86.8838 96.6251C86.8838 91.3236 91.1823 87.043 96.4838 87.043C101.785 87.043 106.084 91.3236 106.084 96.6251Z" fill="#001571"/>
<path d="M48.6443 96.6251C48.6443 101.927 44.3458 106.225 39.0443 106.225C33.7428 106.225 29.4443 101.927 29.4443 96.6251C29.4443 91.3236 33.7428 87.043 39.0443 87.043C44.3458 87.043 48.6443 91.3236 48.6443 96.6251Z" fill="#001571"/>
<path d="M100.084 96.6254C100.084 98.6315 98.4719 100.243 96.4838 100.243C94.4957 100.243 92.8838 98.6315 92.8838 96.6254C92.8838 94.6373 94.4957 93.0254 96.4838 93.0254C98.4719 93.0254 100.084 94.6373 100.084 96.6254Z" fill="white"/>
<path d="M42.6443 96.6254C42.6443 98.6315 41.0324 100.243 39.0443 100.243C37.0563 100.243 35.4443 98.6315 35.4443 96.6254C35.4443 94.6373 37.0563 93.0254 39.0443 93.0254C41.0324 93.0254 42.6443 94.6373 42.6443 96.6254Z" fill="white"/>
<path d="M113.114 43.0007C113.263 43.4667 113.764 43.73 114.241 43.5786C114.711 43.4275 114.97 42.9228 114.818 42.4515C112.053 33.8556 107.278 25.9612 101.013 19.62C100.666 19.2702 100.1 19.2641 99.7463 19.613C99.3948 19.9601 99.3913 20.5268 99.7393 20.8793C105.809 27.0212 110.433 34.6707 113.114 43.0007Z" fill="#001571"/>
<path d="M116.74 50.2435C116.657 49.7539 116.177 49.4302 115.705 49.5142C115.219 49.5991 114.892 50.0627 114.978 50.5496C115.312 52.4763 115.546 54.4326 115.674 56.3644C115.705 56.8376 116.099 57.2005 116.566 57.2005C116.587 57.2005 116.606 57.1996 116.627 57.1987C117.12 57.1656 117.494 56.7397 117.461 56.2455C117.328 54.2516 117.087 52.2314 116.74 50.2435Z" fill="#001571"/>
<path d="M78.58 113.2C69.791 116.364 60.2812 117.219 51.0688 115.664C50.5914 115.594 50.1192 115.911 50.037 116.399C49.9548 116.886 50.2836 117.348 50.7715 117.43C53.8621 117.951 56.9843 118.21 60.1047 118.21C66.5884 118.21 73.0582 117.092 79.1852 114.885C79.6521 114.718 79.8935 114.204 79.7255 113.739C79.5577 113.273 79.0417 113.029 78.58 113.2Z" fill="#001571"/>
<path d="M34.2449 10.0433C34.6857 9.81854 34.8623 9.2798 34.6366 8.83902C34.4127 8.39574 33.8706 8.22684 33.4334 8.44642C18.853 15.8651 7.96507 28.9945 3.55928 44.4676C3.42281 44.9425 3.69916 45.4383 4.17488 45.5739C4.63839 45.707 5.14257 45.4428 5.2803 44.9574C9.5516 29.9617 20.1089 17.2363 34.2449 10.0433Z" fill="#001571"/>
<path d="M45.2867 5.82041C46.896 5.3945 48.5418 5.03862 50.1824 4.76226C50.6705 4.68005 50.9993 4.21742 50.9171 3.73026C50.8349 3.24148 50.3661 2.92751 49.8851 2.99557C48.1902 3.2816 46.4902 3.64895 44.8286 4.08883C44.3511 4.21563 44.066 4.70531 44.1919 5.18369C44.318 5.65832 44.8037 5.94668 45.2867 5.82041Z" fill="#001571"/>
<path d="M114.609 91.3586H113.445V78.0153C113.445 77.7646 113.338 77.5138 113.141 77.3347L108.842 73.6273C109.988 69.4004 110.597 64.9586 110.597 60.3735C110.597 32.2362 87.6899 9.34668 59.5526 9.34668C31.3974 9.34668 8.50781 32.2362 8.50781 60.3735C8.50781 68.6661 10.5317 76.7437 14.2929 83.9437V92.2541V95.1915C14.2929 97.5019 16.1735 99.3825 18.4839 99.3825H28.9257C29.5884 101.836 31.1287 103.932 33.1884 105.329C33.1884 105.329 33.1898 105.329 33.1904 105.33H23.7614C23.2664 105.33 22.8659 105.731 22.8659 106.226C22.8659 106.72 23.2664 107.121 23.7614 107.121H39.0829C39.154 107.174 39.2249 107.228 39.3138 107.263C45.7078 110.021 52.5138 111.436 59.5526 111.436C66.841 111.436 73.7713 109.896 80.057 107.121H112.547C113.042 107.121 113.443 106.72 113.443 106.226C113.443 105.731 113.042 105.33 112.547 105.33H102.338C104.399 103.933 105.941 101.836 106.603 99.3825H114.609C115.111 99.3825 115.505 98.9885 115.505 98.487V92.2541C115.505 91.7527 115.111 91.3586 114.609 91.3586ZM111.654 78.4273V91.3586H105.529C103.831 88.3264 100.358 86.1467 96.4839 86.1467C92.6153 86.1467 89.2481 88.2422 87.4392 91.3586H82.9974V60.9825H98.0063L103.559 71.3527C103.612 71.4422 103.684 71.5318 103.756 71.6034L106.8 74.2362L108.305 75.5437L111.654 78.4273ZM86.0421 97.5915H49.4869C49.6392 96.2186 49.4744 94.6543 48.9317 93.1497H86.5974C86.2033 94.2422 85.9884 95.4064 85.9884 96.6243C85.9884 96.9467 86.0063 97.2691 86.0421 97.5915ZM10.2989 60.3735C10.2989 33.2213 32.4003 11.1377 59.5526 11.1377C86.7048 11.1377 108.806 33.2213 108.806 60.3735C108.806 64.493 108.305 68.487 107.338 72.3198L105.063 70.3497L99.3317 59.675C99.1705 59.3706 98.8839 59.1915 98.5436 59.1915H82.9974V49.9676C82.9974 46.2243 79.9526 43.1795 76.2093 43.1795H21.0809C17.3377 43.1795 14.2929 46.2243 14.2929 49.9676V79.7706C11.6959 73.6989 10.2989 67.1079 10.2989 60.3735ZM16.0839 49.9676C16.0839 47.2094 18.3227 44.9706 21.0809 44.9706H76.2093C78.9675 44.9706 81.2063 47.2094 81.2063 49.9676V91.3586H48.0899C46.2809 88.2422 42.9138 86.1467 39.0451 86.1467C35.1765 86.1467 31.8093 88.2422 30.0003 91.3586C29.6812 91.3586 15.7067 91.3586 16.0839 91.3586C16.0839 75.8856 16.0839 64.9618 16.0839 49.9676ZM18.4839 97.5915C17.1586 97.5915 16.0839 96.5168 16.0839 95.1915V93.1497C16.4889 93.1497 29.9554 93.1497 29.1586 93.1497C28.6185 94.647 28.45 96.2134 28.6033 97.5915C28.3803 97.5915 18.2197 97.5915 18.4839 97.5915ZM30.4123 97.5915C29.6583 93.0721 33.5086 87.9377 39.0451 87.9377C44.5191 87.9377 48.4366 93.0349 47.678 97.5915C47.3185 101.661 43.7059 105.329 39.0451 105.329C34.411 105.329 30.7728 101.681 30.4123 97.5915ZM44.9018 105.329C46.9615 103.932 48.5018 101.836 49.1645 99.3825H86.3645C86.5257 100.027 86.7765 100.636 87.063 101.227C83.4362 103.682 80.8513 104.745 79.681 105.33H44.8999C44.9004 105.329 44.9013 105.329 44.9018 105.329ZM59.5526 109.645C54.2167 109.645 48.9884 108.804 44.0104 107.121H75.0947C70.2062 108.768 64.9778 109.645 59.5526 109.645ZM83.7114 105.33C84.3199 104.982 85.6986 104.288 87.9765 102.75C88.6929 103.753 89.5884 104.63 90.6272 105.329C90.6272 105.329 90.6286 105.329 90.6293 105.33H83.7114ZM96.4839 105.329C91.6635 105.329 87.7795 101.391 87.7795 96.6243C87.7795 91.7306 91.7908 87.9377 96.4839 87.9377C101.549 87.9377 105.721 92.3165 105.135 97.5915C104.625 101.93 100.975 105.329 96.4839 105.329ZM113.714 97.5915H106.926C107.079 96.2106 106.91 94.6454 106.37 93.1497H112.55H113.714V97.5915Z" fill="#001571"/>
<path d="M95.0517 66.8391C94.8905 66.5346 94.586 66.3555 94.2636 66.3555H89.2666C88.7651 66.3555 88.3711 66.7674 88.3711 67.251V75.257C88.3711 75.7585 88.7651 76.1525 89.2666 76.1525H98.5442H98.58C99.0636 76.1525 99.4756 75.7585 99.4756 75.257C99.4756 75.0241 99.3681 74.8092 99.2248 74.648L95.0517 66.8391ZM90.1621 74.3614V68.1465H93.7263L97.0398 74.3614H90.1621Z" fill="#001571"/>
<path d="M96.4819 92.1279C94.026 92.1279 91.9863 94.1511 91.9863 96.6235C91.9863 99.0962 94.0037 101.137 96.4819 101.137C98.9907 101.137 100.977 99.0625 100.977 96.6235C100.977 94.1369 98.9284 92.1279 96.4819 92.1279ZM96.4819 99.3458C94.9138 99.3458 93.7774 97.9864 93.7774 96.6235C93.7774 95.103 95.0451 93.919 96.4819 93.919C97.8955 93.919 99.1863 95.074 99.1863 96.6235C99.1863 98.1054 97.9707 99.3458 96.4819 99.3458Z" fill="#001571"/>
<path d="M43.431 97.5906C44.0616 94.7516 41.8467 92.1279 39.043 92.1279C36.1884 92.1279 34.0313 94.7828 34.6549 97.5906C35.0767 99.5412 36.811 101.137 39.043 101.137C41.2074 101.137 42.9997 99.5853 43.431 97.5906ZM39.043 93.919C40.7939 93.919 42.257 95.6395 41.5683 97.5906C41.1743 98.6115 40.1892 99.3458 39.043 99.3458C37.8967 99.3458 36.9116 98.6115 36.5176 97.5906C35.8314 95.6466 37.2854 93.919 39.043 93.919Z" fill="#001571"/>
<path d="M15.7471 105.329H7.584C7.08915 105.329 6.68848 105.73 6.68848 106.225C6.68848 106.719 7.08915 107.12 7.584 107.12H15.7471C16.2419 107.12 16.6426 106.719 16.6426 106.225C16.6426 105.73 16.2419 105.329 15.7471 105.329Z" fill="#001571"/>
<path d="M41.5896 80.3081H41.6076C43.7031 80.3081 45.4046 78.6066 45.4046 76.5289V56.3976C45.4046 54.3021 43.7031 52.6006 41.5896 52.6006C39.512 52.6006 37.8105 54.3021 37.8105 56.3976V76.5289C37.8105 78.6066 39.512 80.3081 41.5896 80.3081ZM39.6016 56.3976C39.6016 55.2872 40.4971 54.3916 41.6076 54.3916C42.718 54.3916 43.6135 55.2872 43.6135 56.3976V76.5289C43.6135 77.6215 42.718 78.517 41.6076 78.517H41.5896C40.4971 78.517 39.6016 77.6215 39.6016 76.5289V56.3976Z" fill="#001571"/>
<path d="M69.7791 80.3081C71.8746 80.3081 73.5761 78.6066 73.5761 76.5289V56.3976C73.5761 54.3021 71.8746 52.6006 69.7791 52.6006C67.7015 52.6006 66 54.3021 66 56.3976V76.5289C66 78.6066 67.7015 80.3081 69.7791 80.3081ZM67.791 56.3976C67.791 55.2872 68.6866 54.3916 69.7791 54.3916C70.8896 54.3916 71.7851 55.2872 71.7851 56.3976V76.5289C71.7851 77.6215 70.8896 78.517 69.7791 78.517C68.6866 78.517 67.791 77.6215 67.791 76.5289V56.3976Z" fill="#001571"/>
<path d="M55.6844 80.3081H55.7023C57.7978 80.3081 59.4993 78.6066 59.4993 76.5289V56.3976C59.4993 54.3021 57.7978 52.6006 55.6844 52.6006C53.6068 52.6006 51.9053 54.3021 51.9053 56.3976V76.5289C51.9053 78.6066 53.6068 80.3081 55.6844 80.3081ZM53.6963 56.3976C53.6963 55.2872 54.5918 54.3916 55.7023 54.3916C56.8127 54.3916 57.7083 55.2872 57.7083 56.3976V76.5289C57.7083 77.6215 56.8127 78.517 55.7023 78.517H55.6844C54.5918 78.517 53.6963 77.6215 53.6963 76.5289V56.3976Z" fill="#001571"/>
<path d="M27.492 80.3081H27.5099C29.6054 80.3081 31.3069 78.6066 31.3069 76.5289V56.3976C31.3069 54.3021 29.6054 52.6006 27.492 52.6006C25.4144 52.6006 23.7129 54.3021 23.7129 56.3976V76.5289C23.7129 78.6066 25.4144 80.3081 27.492 80.3081ZM25.5039 56.3976C25.5039 55.2872 26.3995 54.3916 27.5099 54.3916C28.6204 54.3916 29.5159 55.2872 29.5159 56.3976V76.5289C29.5159 77.6215 28.6204 78.517 27.5099 78.517H27.492C26.3995 78.517 25.5039 77.6215 25.5039 76.5289V56.3976Z" fill="#001571"/>
</svg>
