<svg width="117" height="118" viewBox="0 0 117 118" fill="none" xmlns="http://www.w3.org/2000/svg">
<path d="M110.13 20.122V79.2536C110.13 82.015 107.892 84.2535 105.13 84.2535H50.3183C47.5569 84.2535 45.3184 82.015 45.3184 79.2536V20.122C45.3184 17.3606 47.5569 15.1221 50.3183 15.1221H105.13C107.892 15.1221 110.13 17.3606 110.13 20.122Z" fill="white"/>
<path d="M110.13 29.1153V20.122C110.13 17.3606 107.892 15.1221 105.13 15.1221H50.3183C47.5569 15.1221 45.3184 17.3606 45.3184 20.122V29.1153H110.13Z" fill="#001571"/>
<path d="M28.9844 75.3877H23.3153C18.7488 75.3877 15.0469 79.0896 15.0469 83.6561V95.6292C15.0469 101.761 20.0178 106.732 26.1498 106.732C32.2819 106.732 37.2528 101.761 37.2528 95.6292V83.6561C37.2528 79.0896 33.5509 75.3877 28.9844 75.3877Z" fill="white"/>
<path d="M77.7274 72.9186C87.4014 72.9186 95.2438 65.0762 95.2438 55.4022C95.2438 45.7281 87.4014 37.8857 77.7274 37.8857C68.0533 37.8857 60.2109 45.7281 60.2109 55.4022C60.2109 65.0762 68.0533 72.9186 77.7274 72.9186Z" fill="#001571"/>
<path d="M100.215 96.6241C89.533 108.483 74.2899 115.285 58.3935 115.285H58.3585C57.8635 115.285 57.4805 115.685 57.4805 116.18C57.4805 116.675 57.8985 117.076 58.3935 117.076C74.7954 117.076 90.523 110.059 101.544 97.824C101.876 97.4567 101.846 96.89 101.479 96.5594C101.112 96.2253 100.545 96.2586 100.215 96.6241Z" fill="#001571"/>
<path d="M2.084 58.9976C2.084 43.9678 7.96436 29.8266 18.6424 19.1818C18.9922 18.832 18.9931 18.2653 18.6442 17.9155C18.2952 17.5622 17.7285 17.5657 17.3779 17.912C6.36047 28.8961 0.292969 43.4868 0.292969 58.9976C0.292969 63.8617 0.900778 68.7031 2.10063 73.3889C2.22413 73.8724 2.71849 74.1564 3.19031 74.0343C3.66955 73.9119 3.95815 73.4239 3.83571 72.9446C2.67345 68.404 2.084 63.7113 2.084 58.9976Z" fill="#001571"/>
<path d="M24.8206 13.8505C27.1206 12.1381 29.564 10.5937 32.0836 9.25743C32.52 9.02654 32.687 8.48434 32.4553 8.04707C32.2226 7.60981 31.6787 7.4419 31.244 7.67627C28.6449 9.05454 26.1245 10.6479 23.7519 12.4127C23.3548 12.7083 23.2726 13.2698 23.5674 13.6668C23.8627 14.0635 24.425 14.1444 24.8206 13.8505Z" fill="#001571"/>
<path d="M105.126 14.2303H95.2929C84.8869 5.6333 71.866 0.922852 58.3973 0.922852C57.2153 0.922852 56.0331 0.958708 54.869 1.03031C54.3674 1.06617 53.9914 1.496 54.0271 1.97962C54.0451 2.48106 54.4928 2.89307 54.9765 2.82136C56.1048 2.74975 57.251 2.7139 58.3973 2.7139C70.7018 2.7139 82.6123 6.76168 92.3914 14.2303H82.5942C75.3877 10.3174 67.1531 8.06713 58.3926 8.06713C30.2982 8.06713 7.44141 30.9135 7.44141 58.9965C7.44141 68.1577 9.90279 76.7421 14.1585 84.1756V95.6333C14.1585 102.242 19.5316 107.633 26.1406 107.633C29.472 107.633 32.4989 106.272 34.6839 104.051C34.6882 104.047 34.6915 104.042 34.6958 104.038C41.7825 107.779 49.8363 109.926 58.3926 109.926C76.9087 109.926 93.1164 99.9739 102.028 85.1557H105.126C108.385 85.1557 111.018 82.5049 111.018 79.2452V29.1139V20.1229C111.018 16.8632 108.385 14.2303 105.126 14.2303ZM105.126 16.0213C107.4 16.0213 109.227 17.8482 109.227 20.1229V28.2184H46.2182V20.1229C46.2182 17.8482 48.063 16.0213 50.3197 16.0213H105.126ZM58.3926 9.85818C65.5948 9.85818 72.4302 11.4342 78.5991 14.2303H50.3197C47.0599 14.2303 44.4272 16.8632 44.4272 20.1229V29.1139V50.7689H22.4834C19.5222 50.7689 17.1137 53.1773 17.1137 56.1367C17.1137 59.0979 19.5222 61.5064 22.4834 61.5064H32.0342C34.0071 61.5064 35.6127 63.112 35.6127 65.1339C35.6127 67.1069 34.0071 68.7125 32.0342 68.7125H29.5916C27.1989 68.7125 25.253 70.6592 25.253 73.0502V74.4811H23.3108C19.1556 74.4811 15.6271 77.2751 14.5167 81.09C14.5164 81.091 14.5164 81.0922 14.5161 81.0932C11.1489 74.445 9.23245 66.944 9.23245 58.9965C9.23243 31.9017 31.2855 9.85818 58.3926 9.85818ZM26.1406 105.842C20.5168 105.842 15.9495 101.257 15.9495 95.6333V83.6512C15.9495 79.5855 19.2451 76.2721 23.3108 76.2721C23.4947 76.2721 29.1981 76.2721 28.9884 76.2721C33.0541 76.2721 36.3496 79.5855 36.3496 83.6512V95.6333C36.3495 101.257 31.7824 105.842 26.1406 105.842ZM35.1773 103.505C35.1799 103.502 35.1828 103.499 35.1854 103.496C35.2212 103.478 35.2212 103.46 35.2391 103.442C35.2422 103.439 35.245 103.435 35.2481 103.431V103.505H35.1773ZM58.3926 108.135C50.2769 108.135 42.6255 106.14 35.8723 102.644C37.3008 100.676 38.1406 98.2618 38.1406 95.6333V83.6512C38.1406 78.6005 34.0391 74.4811 28.9884 74.4811H27.0441V73.0502C27.0441 71.6457 28.1871 70.5036 29.5916 70.5036H32.0342C34.9953 70.5036 37.4038 68.0951 37.4038 65.085C37.4038 62.1238 34.9953 59.7153 32.0342 59.7153H22.4834C20.5104 59.7153 18.9048 58.1097 18.9048 56.1367C18.9048 54.1638 20.5104 52.5599 22.4834 52.5599H44.4272V79.2452C44.4272 82.5049 47.0599 85.1557 50.3197 85.1557H99.9222C91.2137 98.9413 75.8711 108.135 58.3926 108.135ZM105.126 83.3647H50.3197C48.063 83.3647 46.2182 81.5199 46.2182 79.2452V30.0094H109.227V79.2452C109.227 81.5199 107.4 83.3647 105.126 83.3647Z" fill="#001571"/>
<path d="M55.0664 24.3282C56.2881 24.3282 57.2784 23.3379 57.2784 22.1162C57.2784 20.8946 56.2881 19.9043 55.0664 19.9043C53.8448 19.9043 52.8545 20.8946 52.8545 22.1162C52.8545 23.3379 53.8448 24.3282 55.0664 24.3282Z" fill="#E6E8F1"/>
<path d="M64.0196 24.3282C65.2412 24.3282 66.2315 23.3379 66.2315 22.1162C66.2315 20.8946 65.2412 19.9043 64.0196 19.9043C62.7979 19.9043 61.8076 20.8946 61.8076 22.1162C61.8076 23.3379 62.7979 24.3282 64.0196 24.3282Z" fill="#E6E8F1"/>
<path d="M88.5547 23.0108H102.598C103.093 23.0108 103.493 22.6102 103.493 22.1152C103.493 21.6203 103.093 21.2197 102.598 21.2197H88.5547C88.0597 21.2197 87.6592 21.6203 87.6592 22.1152C87.6592 22.6102 88.0597 23.0108 88.5547 23.0108Z" fill="#001571"/>
<path d="M80.208 23.0108H83.9248C84.4198 23.0108 84.8203 22.6102 84.8203 22.1152C84.8203 21.6203 84.4198 21.2197 83.9248 21.2197H80.208C79.713 21.2197 79.3125 21.6203 79.3125 22.1152C79.3125 22.6102 79.713 23.0108 80.208 23.0108Z" fill="#001571"/>
<path d="M26.0897 80.1885C25.1217 80.1885 24.3369 80.9731 24.3369 81.9413V85.8232C24.3369 86.7912 25.1217 87.5759 26.0897 87.5759C27.0577 87.5759 27.8425 86.7912 27.8425 85.8232V81.9413C27.8425 80.9731 27.0577 80.1885 26.0897 80.1885Z" fill="#001571"/>
<path d="M83.6101 50.5216C83.2165 50.2156 82.6568 50.289 82.3525 50.6773C82.0482 51.0673 82.1181 51.6305 82.5082 51.9349L87.7221 55.9962L82.5082 60.0576C82.1181 60.3619 82.0481 60.9251 82.3525 61.3151C82.6575 61.7047 83.2194 61.7742 83.6101 61.4708L89.7301 56.7028C89.9469 56.5332 90.0746 56.2726 90.0746 55.9962C90.0746 55.7199 89.9469 55.4593 89.7301 55.2896L83.6101 50.5216Z" fill="#E6E8F1"/>
<path d="M73.101 50.6773C72.7967 50.289 72.2335 50.2156 71.8435 50.5216L65.7235 55.2896C65.5066 55.4593 65.3789 55.7199 65.3789 55.9962C65.3789 56.2726 65.5066 56.5332 65.7235 56.7028L71.8435 61.4708C72.2343 61.7743 72.7961 61.7046 73.101 61.3151C73.4054 60.9251 73.3354 60.3619 72.9454 60.0576L67.7314 55.9962L72.9454 51.9349C73.3354 51.6306 73.4054 51.0674 73.101 50.6773Z" fill="#E6E8F1"/>
<path d="M79.7919 47.0185C79.297 46.8996 78.8247 47.1952 78.7075 47.6727L75.003 62.6989C74.884 63.1799 75.1779 63.6644 75.6571 63.7833C76.1561 63.9021 76.6277 63.5946 76.7416 63.1292L80.4461 48.1029C80.565 47.6219 80.2712 47.1375 79.7919 47.0185Z" fill="#E6E8F1"/>
<path d="M115.813 48.7881C115.318 48.7881 114.917 49.1886 114.917 49.6836V64.6381C114.917 65.1331 115.318 65.5337 115.813 65.5337C116.308 65.5337 116.708 65.1331 116.708 64.6381V49.6836C116.708 49.1886 116.307 48.7881 115.813 48.7881Z" fill="#001571"/>
<path d="M115.813 38.1182C115.318 38.1182 114.917 38.5187 114.917 39.0137V43.4283C114.917 43.9233 115.318 44.3238 115.813 44.3238C116.308 44.3238 116.708 43.9233 116.708 43.4283V39.0137C116.708 38.5187 116.307 38.1182 115.813 38.1182Z" fill="#001571"/>
<path d="M69.8399 91.9522H74.1985C74.6935 91.9522 75.094 91.5516 75.094 91.0567C75.094 90.5617 74.6935 90.1611 74.1985 90.1611H69.8399C69.3449 90.1611 68.9443 90.5617 68.9443 91.0567C68.9443 91.5516 69.3449 91.9522 69.8399 91.9522Z" fill="#001571"/>
<path d="M52.5166 91.9522H65.4833C65.9783 91.9522 66.3789 91.5516 66.3789 91.0567C66.3789 90.5617 65.9783 90.1611 65.4833 90.1611H52.5166C52.0216 90.1611 51.6211 90.5617 51.6211 91.0567C51.6211 91.5516 52.0216 91.9522 52.5166 91.9522Z" fill="#001571"/>
</svg>
