<svg width="40" height="40" viewBox="0 0 40 40" fill="none" xmlns="http://www.w3.org/2000/svg">
<path d="M18.75 26.6667C18.75 27.3571 19.3096 27.9167 20 27.9167C20.6904 27.9167 21.25 27.3571 21.25 26.6667H18.75ZM21.25 8.33341C21.25 7.64305 20.6904 7.08341 20 7.08341C19.3096 7.08341 18.75 7.64305 18.75 8.33341L21.25 8.33341ZM25.7828 12.5506C26.2709 13.0388 27.0624 13.0388 27.5506 12.5506C28.0387 12.0625 28.0387 11.271 27.5506 10.7829L25.7828 12.5506ZM21.1785 6.17858L20.2946 7.06247L21.1785 6.17858ZM18.8215 6.17859L19.7054 7.06247L19.7054 7.06247L18.8215 6.17859ZM12.4494 10.7829C11.9613 11.271 11.9613 12.0625 12.4494 12.5506C12.9376 13.0388 13.7291 13.0388 14.2172 12.5506L12.4494 10.7829ZM6.25 26.6667C6.25 25.9764 5.69036 25.4167 5 25.4167C4.30964 25.4167 3.75 25.9764 3.75 26.6667H6.25ZM36.25 26.6667C36.25 25.9764 35.6904 25.4167 35 25.4167C34.3096 25.4167 33.75 25.9764 33.75 26.6667H36.25ZM32.27 34.4551L31.7025 33.3413V33.3413L32.27 34.4551ZM34.455 32.27L35.5688 32.8375H35.5688L34.455 32.27ZM5.54497 32.27L4.43121 32.8375L5.54497 32.27ZM7.73005 34.4551L7.16256 35.5689H7.16256L7.73005 34.4551ZM21.25 26.6667L21.25 8.33341L18.75 8.33341L18.75 26.6667H21.25ZM27.5506 10.7829L22.0624 5.2947L20.2946 7.06247L25.7828 12.5506L27.5506 10.7829ZM17.9376 5.2947L12.4494 10.7829L14.2172 12.5506L19.7054 7.06247L17.9376 5.2947ZM22.0624 5.2947C20.9234 4.15567 19.0766 4.15567 17.9376 5.2947L19.7054 7.06247C19.8681 6.89975 20.1319 6.89975 20.2946 7.06247L22.0624 5.2947ZM3.75 26.6667V27.0001H6.25V26.6667H3.75ZM13 36.2501H27V33.7501H13V36.2501ZM36.25 27.0001V26.6667H33.75V27.0001H36.25ZM27 36.2501C28.3795 36.2501 29.4893 36.251 30.3858 36.1778C31.2968 36.1034 32.0971 35.9461 32.8374 35.5689L31.7025 33.3413C31.3733 33.5091 30.9387 33.6243 30.1822 33.6861C29.4111 33.7491 28.4208 33.7501 27 33.7501V36.2501ZM33.75 27.0001C33.75 28.4208 33.749 29.4112 33.686 30.1823C33.6242 30.9387 33.509 31.3733 33.3413 31.7025L35.5688 32.8375C35.946 32.0972 36.1033 31.2969 36.1777 30.3859C36.251 29.4894 36.25 28.3796 36.25 27.0001H33.75ZM32.8374 35.5689C34.0135 34.9697 34.9696 34.0135 35.5688 32.8375L33.3413 31.7025C32.9817 32.4081 32.4081 32.9818 31.7025 33.3413L32.8374 35.5689ZM3.75 27.0001C3.75 28.3796 3.74903 29.4894 3.82227 30.3859C3.89671 31.2969 4.05397 32.0972 4.43121 32.8375L6.65873 31.7025C6.49099 31.3733 6.37577 30.9387 6.31397 30.1823C6.25097 29.4112 6.25 28.4208 6.25 27.0001H3.75ZM13 33.7501C11.5792 33.7501 10.5889 33.7491 9.8178 33.6861C9.06134 33.6243 8.62673 33.5091 8.29754 33.3413L7.16256 35.5689C7.90292 35.9461 8.70316 36.1034 9.61422 36.1778C10.5107 36.251 11.6205 36.2501 13 36.2501V33.7501ZM4.43121 32.8375C5.03042 34.0135 5.98655 34.9697 7.16256 35.5689L8.29754 33.3413C7.59193 32.9818 7.01825 32.4081 6.65873 31.7025L4.43121 32.8375Z" fill="#001571"/>
</svg>
